<?xml version="1.0" encoding="utf-8"?>
<!-- Generator: Adobe Illustrator 25.4.1, SVG Export Plug-In . SVG Version: 6.00 Build 0)  -->
<svg version="1.1" id="Layer_1" xmlns="http://www.w3.org/2000/svg" xmlns:xlink="http://www.w3.org/1999/xlink" x="0px" y="0px"
	 viewBox="0 0 3456 4320" style="enable-background:new 0 0 3456 4320;" xml:space="preserve">
<style type="text/css">
	.st0{fill:#F19520;stroke:#000000;stroke-width:92.9477;stroke-miterlimit:10;}
	.st1{clip-path:url(#SVGID_00000101078962681844794000000008218185253826640044_);fill:#47C7EF;}
	.st2{clip-path:url(#SVGID_00000101078962681844794000000008218185253826640044_);fill:#4A95D1;}
	.st3{fill:#44B649;stroke:#09723B;stroke-width:8.9394;stroke-miterlimit:10;}
	.st4{fill:#FFFFFF;}
	.st5{fill:#F2EA21;}
	.st6{fill:#91D8F5;}
	.st7{fill:url(#SVGID_00000140698243639711595110000010487438150527228817_);}
	.st8{fill:#E77224;stroke:#000000;stroke-width:4.5907;stroke-miterlimit:10;}
	.text-bg{fill:#000000;}
</style>
<ellipse class="st0" cx="1775.14" cy="2168.89" rx="1446.7" ry="1450.07"/>
<g>
	<defs>
		<ellipse id="SVGID_1_" cx="1775.14" cy="2166.9" rx="1127.3" ry="1080.03"/>
	</defs>
	<clipPath id="SVGID_00000158008563038878259530000014184022683917164433_">
		<use xlink:href="#SVGID_1_"  style="overflow:visible;"/>
	</clipPath>
	
		<ellipse style="clip-path:url(#SVGID_00000158008563038878259530000014184022683917164433_);fill:#47C7EF;" cx="1775.14" cy="2169.13" rx="1127.3" ry="1080.03"/>
	<path style="clip-path:url(#SVGID_00000158008563038878259530000014184022683917164433_);fill:#4A95D1;" d="M2461.06,3088.65
		c-357.78,140.44-916.18,277.53-1230.49,86.94c-171.63-104.07-288.65-246.93-359.52-355.16c-0.97,4.99-2.73,9.43-5.51,12.98
		c-13.93,17.84-85.82-9.47-95.3-28.98c-9.47-19.5-12.81-144.34-12.81-144.34s21.22-4.58,32.38,2.81c4.28-0.88,11.29-1.36,20.19,1.46
		c15.23,4.83,23.41,15.24,42.36,3.72c18.95-11.52,19.69-14.12,20.8-23.03c1.12-8.92,7.81-16.35,15.6-10.03
		c7.81,6.31,8.22,12.62,31.05,25.26c22.83,12.63,55.52,29.72,68.15,19.32c12.63-10.4,3.72,1.49,13-6.69
		c9.29-8.17,19.32-24.89,53.5-26.38c34.18-1.49,68.73,5.2,80.62,6.31c11.89,1.12,15.79,4.46,18.39,9.47
		c2.6,5.02-5.76,11.34,17.65,14.31c23.41,2.97,83.97,2.14,101.52-0.93s32.32,1.67,38.73-9.76c6.41-11.42,18.66-29.54,37.06-22.29
		c18.39,7.24,40.96,23.96,60.75,21.45c19.78-2.51,34.83-15.89,49.04-10.03c14.21,5.85,33.16,8.64,38.45,20.34
		c5.3,11.71,14.49,43.19,31.21,34.55c16.72-8.63,24.8-8.92,28.98-19.78c4.18-10.87,22.01-14.77,30.65-14.77
		c8.64,0,27.86,4.18,36.23,13.38c8.36,9.19,2.51,12.26,21.18,12.26c18.66,0,64.36-22.29,81.64-15.32
		c17.27,6.97,121.11,18.02,133.01,25.08c11.89,7.06,10.03,15.6,18.95,7.43c8.92-8.18,18.78-23.61,35.96-25.92
		c17.17-2.31,78.48,2.89,89.25,0.29c10.78-2.6,19.32,4.09,33.81,13.37c14.49,9.29,56.26,14.28,68.44,9.93
		c12.18-4.36,3.64-8.44,21.47-17.73c17.83-9.29,44.95-18.58,50.16-28.24c5.2-9.66,10.4-18.21,16.34-11.52
		c5.94,6.69,6.31,6.69,10.4,15.97c4.09,9.29,24.52,34.93,56.85,39.39c32.32,4.46,45.7,7.8,60.19-1.49
		c14.49-9.29,38.27-18.58,54.24-15.23c15.97,3.34,31.58-3.72,45.32-11.89c13.75-8.18,29.72-17.84,41.24-17.46
		c11.52,0.37,40.12,10.03,72.07,4.83c31.96-5.2,38.27,7.43,56.85-13.75c18.58-21.17,18.21-31.2,31.95-29.72
		c13.75,1.49,37.15,22.29,72.08,26.38c34.92,4.09,40.12,3.72,54.98,1.49c14.86-2.23,33.07,2.97,33.07,2.97
		S2818.85,2948.22,2461.06,3088.65z"/>
</g>
<g>
	<path class="st3" d="M2509.6,2460.94c41.34,121.64,96.82,83.88,10.67,112.76c-16.96,9.21-39.38,31.28-58.66,19.64
		c10.71-10.05,17.26-26.21-3.43-13.59c-19.93,45.23-35.66,18.49-66.64,10.7c-13.22,12.24-68.49,14.51-84.84,16.56
		c-31-12.04-76.53,9.76-77.44-42.97c-20.81-10.98-10.76-7.16-25.04-23.17c-58.44-29.1-80.59,0.64-138.62-7.15
		c-10.69-20.3,115.54,2.77,76.46-23.05c-43.53-4.54-52.14-0.02-90.28-30.45c-9.85,50.63-34.39,24.33-35.13,67.82
		c-8.03,38.49-23.14,114.35-68.82,72.09c-3.95-4.47-50,8.52-43.15-7.1c7.14-6.43,26-0.51,8.07-15.19
		c-17.45-41.18-61.97-35.36-88.77-10.86c-33.16,53.26,10.64,59.38-31.28,77.88c12.45,44.1-1.63-3.46-27.14,26.75
		c16.08,16.02,40.42,15.97,59.14,6.56c4.06,24.66,20.36,55.16-13.57,59.57c-79.07-3.63-124.62-133.67-202.75-152.11
		c-49.85-10.52-30.97,39.58-99.78,7.41c-52.84-16.34-143.46,19.7-188.41-29.73c-11.9-7.71-16.16-32.13-20.03-45.98
		c-37.64-23.58-13.41-36.96-25.93-80.88c-19.8-15.65-66.17-2.39-86.47-14.54c-7.86-22.21-19.86-70.59-45.37-72.74
		c-25.81-75.14-28.63-96.63-104.97-85.4c-15-3.44-49.85-14.19-61.28,4.65c-10.52-2.01-26.49-13.64-37.38-13.86
		c-19.05-10.45-48.29-8.21-64.51-25.48c-19.8-27.18-13.47-36.01,8.14-57.24c4.17-25.48-2.37-48.94,12.01-72.34
		c25.12,4.9,23.08-37.16,47.09-20.88c5.61-34.43,31.7-57.08,59.87-63.95c36.16,36.87,12.84-1.78,44.07,1.56
		c42.33,24.52,78.83-11.45,122.76,12.03c11.4-0.48,20.05-7.92,17.35-21.91c42.28-105.62,157.31-39.36,230.07-26.82
		c62.43,4.57,144.46,1.41,200.14,33.31c34-9.69,124.06-18.96,140.68,22.81c2.91,5.55,8.51,4.84,12.58,1.82
		c12.94-11.64,47.34,7.53,58.31,22.03c23.38,6.1,53.48-10.35,76.01-4.39c15.63,14.79,53.34,9.79,71.76,8.66
		c11.7-9.13,39.89-12.35,47.11,3.79c-14.18,37.6,39.84,51.37,58.63,69.85c22.34,96.07,73.65,19.78,129.19,93.56
		c20.07,8.01,44.82-1.81,61.01,19.88c18.35,17.78,77.21-12.7,82.94,26.69c18.54,4.09,70.47,14.46,87.35,25.36
		c-1.22,17.14,16.47,35.02,26,44.91C2482.48,2384.79,2500.47,2439.44,2509.6,2460.94z"/>
	<circle class="st4" cx="2436.13" cy="1931.1" r="236.78"/>
	<g>
		<g>
			<circle class="st5" cx="2436.13" cy="1931.1" r="138.52"/>
			<polygon class="st5" points="2436.13,1710.23 2414.21,1775.66 2458.04,1775.66 			"/>
			<polygon class="st5" points="2414.21,2086.54 2436.13,2151.97 2458.04,2086.54 			"/>
			<polygon class="st5" points="2377.39,1785.53 2325.69,1739.82 2339.43,1807.44 			"/>
			<polygon class="st5" points="2494.87,2076.67 2546.56,2122.38 2532.83,2054.76 			"/>
			<polygon class="st5" points="2312.47,1834.4 2244.85,1820.67 2290.55,1872.36 			"/>
			<polygon class="st5" points="2559.78,2027.8 2627.4,2041.53 2581.7,1989.84 			"/>
			<polygon class="st5" points="2280.69,1909.18 2215.26,1931.1 2280.69,1953.02 			"/>
			<polygon class="st5" points="2591.57,1953.02 2656.99,1931.1 2591.57,1909.18 			"/>
			<polygon class="st5" points="2244.85,2041.53 2312.47,2027.8 2290.55,1989.84 			"/>
			<polygon class="st5" points="2627.4,1820.67 2559.78,1834.4 2581.7,1872.36 			"/>
			<polygon class="st5" points="2325.69,2122.38 2377.39,2076.67 2339.43,2054.76 			"/>
			<polygon class="st5" points="2546.56,1739.82 2494.87,1785.53 2532.83,1807.44 			"/>
		</g>
	</g>
	<g>
		<g>
			<path class="st6" d="M948.23,2808.25c4.16,11.14,9.29,21.12,19.79,27.41c11.63,6.96,26.07,10.7,39.45,11.94
				c13.99,1.3,29.06-1.17,38.69-12.27c9.75-11.24,11.32-26.94,23.07-36.74c6.42-5.36,12.9-9.75,18.21-16.33
				c3.17-3.92,5.79-7.01,10.61-8.85c4.41-1.68,8.66-2.84,12.8-5.2c7.74-4.42,15.08-6.6,24.12-4.39c3.22,0.79,6.8,2,9.62,3.74
				c5.28,3.25,4.96,6.77,7.16,11.82c2.16,4.98,5.75,8.79,11.03,10.42c2.87,0.88,6.09,1.15,9.06,1.33c4.8,0.28,12.89-2.51,17.39-0.85
				c3.12,1.15,2.6,2.7,2.74,6.28c0.12,3.02-0.13,6.05,0.15,9.06c0.58,6.18,3.02,11.9,7.02,16.65c8.1,9.6,21.13,14.27,33.38,15
				c7.57,0.45,14.9-1.49,22.38-2.31c8.02-0.87,15.92-0.13,23.79-2.29c17.04-4.68,34.87-9.54,51.04-16.72
				c7.8-3.47,15.42-7.75,22.65-12.29c6.46-4.05,12.09-10.11,18.82-13.59c5.99-3.09,16.47-3.12,23-2.19
				c8.6,1.22,17.19,6.66,24.94,10.39c8.32,4,15.53,8.68,22.45,14.8c6.23,5.5,12.21,9.9,19.94,13.07c7.13,2.92,14.41,5.83,21.95,7.52
				c8.43,1.89,16.23-0.39,24.61,0.38c8.97,0.83,17.43,5.81,25.98,8.28c8.37,2.42,17.04,3.08,25.68,2
				c17.66-2.21,30.5-13.47,45.84-21.36c16.84-8.66,36.29-8.71,54.88-8.17c16.51,0.47,30.01,5.77,43.99,14.23
				c12.4,7.51,24.42,15.85,38.23,20.63c17.84,6.18,36.66,1.74,54.85,5.77c9,1.99,18.33,2.66,27.09,5.64
				c9.34,3.17,17.97,7.31,27.66,9.59c17.38,4.1,36.62,7.62,54.52,7.42c8.01-0.09,16.31-1.1,23.73-4.25
				c6.62-2.81,11.36-7.69,16.39-12.67c6.28-6.22,13.53-11.2,20.12-17.05c6.45-5.73,11.74-13.39,19.46-17.53
				c8.18-4.38,17.89-5.41,26.36-9.28c9.47-4.33,17.52-4.44,27.74-4.42c4.56,0.01,9.25-0.51,13.8-0.06c4.99,0.49,9.58,2.49,14.34,3.9
				c8.18,2.42,16.74,3.36,25.17,1.59c7.43-1.56,15.77-5.1,22.03-9.38c6.46-4.42,10.26-11.22,17.21-15.39
				c6.67-4,14.19-6.92,21.88-8.22c10.07-1.69,17.18,0.94,26.44,4.61c8.66,3.44,19.52,3.94,27.24,9.35
				c6.68,4.68,11.44,12.24,17.81,17.5c21.61,17.83,61.52,32.36,86.1,11.51c5.19-4.4,8.64-11.57,15.82-12.84
				c6.96-1.23,13.2,1.36,19.3,4.17c11.8,5.45,15.23-5.04,20.36-13.67c4.4-7.4,10.44-8.84,18.63-8.88
				c9.92-0.04,14.2,3.36,19.61,11.21c7.97,11.57,25.72,14.73,38.96,13.85c16.1-1.06,30.9-9.44,42.47-20.32
				c10.65-10.02,18.4-24.9,32.75-30.19c8-2.95,14.76-2.48,20.97,3.49c5.66,5.44,9.28,10.81,16.77,13.98
				c15.98,6.75,34.83,6.27,51.8,5.37c14.06-0.74,21.26-10.39,27.64-21.78c3.96-7.07-6.9-13.43-10.87-6.35
				c-2.99,5.33-6.12,12.23-12.18,14.64c-4.02,1.6-9.03,0.85-13.22,0.9c-5.19,0.06-10.39,0.44-15.58,0.22
				c-7.9-0.34-17.82-1.58-24.85-5.55c-6.62-3.74-10.18-11.15-16.69-15.27c-11.63-7.36-26.85-3.9-37.68,3.4
				c-11.47,7.74-18.64,19.92-28.75,29.13c-13.86,12.64-30.1,18.07-48.53,14.06c-4.74-1.03-8.95-2.06-12.15-5.95
				c-1.68-2.04-2.77-4.56-4.44-6.64c-4.51-5.62-10.63-9.12-17.73-10.26c-12.75-2.05-26.8-0.16-35.08,10.56
				c-1.98,2.57-3.47,5.32-4.95,8.21c-0.51,1-2.61,3.69-2.5,4.69c0.36,3.46-3.52-4.77,1.91,0.43c-3.32-3.18-10.79-4.88-15.12-5.56
				c-6.17-0.97-12.96-1.1-18.79,1.36c-6.22,2.62-9.72,7.87-14.38,12.43c-12.49,12.19-32.75,8.89-47.73,3.92
				c-8.21-2.72-15.26-6.92-21.98-12.34c-6.5-5.25-11.28-11.88-17.45-17.37c-5.75-5.12-12.93-7.31-20.23-9.3
				c-9.18-2.51-17.93-7.23-27.19-9.11c-14.37-2.92-30.04,1.6-42.63,8.52c-6.05,3.33-11.43,7.43-15.94,12.65
				c-5.81,6.71-15.39,11.17-24.24,12.3c-9.31,1.19-17.19-2.47-25.96-4.76c-8.61-2.24-17.58-1.34-26.39-1.4
				c-7.42-0.05-14.89,0.06-21.97,2.57c-4.56,1.61-8.68,4.14-13.26,5.71c-4.63,1.59-9.47,2.49-14.08,4.17
				c-15.38,5.6-25.53,19.93-38.01,29.92c-6.28,5.03-11.54,11.18-17.76,16.19c-7.62,6.13-18.11,6.88-27.53,6.66
				c-18.13-0.43-37.75-3.73-55.18-8.78c-8.5-2.47-16.3-6.73-24.85-8.98c-8.92-2.35-18.2-3.53-27.22-5.46
				c-17.6-3.77-35.52,1.09-52.67-5.51c-14.02-5.39-26.1-14.82-39.11-22.12c-13.12-7.37-26.5-11.6-41.57-12.31
				c-15.66-0.73-34.12-1.22-49.21,3.54c-7.89,2.49-15.31,6.33-22.43,10.5c-7.59,4.45-14.91,10.33-23.29,13.22
				c-8.48,2.93-17.87,3.56-26.65,1.7c-9.13-1.94-17.45-6.5-26.51-8.64c-7.85-1.85-14.97,0.12-22.81-0.27
				c-8.55-0.42-17.32-4.23-25.15-7.42c-8.22-3.35-13.92-8.6-20.6-14.24c-6.79-5.73-14.32-10.07-22.31-13.88
				c-6.78-3.23-13.54-6.76-20.59-9.37c-7.44-2.75-14.52-2.27-22.31-1.96c-6.21,0.25-11.84,0.99-17.28,4.2
				c-6.79,4-12.48,9.71-19.24,13.85c-16.05,9.82-32.64,15.94-50.62,21.19c-7.54,2.2-15.19,5.52-22.95,6.8
				c-8.62,1.42-17.58,0.93-26.3,2.25c-12.68,1.91-28.71,0.76-37.06-10.62c-6.89-9.39,0.85-23.6-8.36-31.85
				c-5.53-4.95-12.93-3.39-19.67-2.94c-3.81,0.25-8.34,1-12.04-0.27c-4.65-1.59-4.46-4.28-6.03-8.74
				c-4.52-12.83-20-18.5-32.78-18.86c-6.93-0.19-13.54,0.63-19.68,3.94c-4.09,2.21-7.59,4.4-12.01,6.04
				c-4.09,1.52-7.94,2.62-11.49,5.26c-5.96,4.44-9.59,11.29-15.31,16.07c-6.43,5.38-13.44,9.69-18.37,16.67
				c-8.25,11.68-9.93,29.7-25.05,35.04c-13.75,4.86-30.51,0.54-43.61-4.47c-12.44-4.75-18.48-11.75-23.1-24.14
				C957.56,2797.38,945.39,2800.64,948.23,2808.25L948.23,2808.25z"/>
		</g>
	</g>
	<g>
		<g>
			<path class="st6" d="M797.28,2668.27c11.62,10.79,27.81,9.82,42.57,9.11c6.96-0.34,13.96-0.04,20.47-2.93
				c6.58-2.92,10.83-8.74,11.4-15.94c0.43-5.43-3.58-14.63,2.65-17.52c5.21-2.42,13.18-0.14,16.76,4.25
				c2.48,3.04,3.48,7.05,5.94,10.17c2.63,3.34,6.05,5.73,9.67,7.9c7.38,4.43,14.63,8.8,22.64,12.04
				c15.13,6.11,33.04,9.97,49.39,9.51c7.58-0.22,16.16-1.42,22.09-6.56c2.63-2.28,4.1-5.09,5.9-8c2.15-3.47,5.16-6.39,7.53-9.71
				c4.82-6.74,11.11-5.98,18.5-7.53c4.65-0.97,8.66-1.93,13.47-1.89c4.84,0.04,9.65,0.29,14.49,0.15c4.86-0.14,9.4-0.19,14.13,1.14
				c4.67,1.32,9.15,2.83,13.93,3.71c9.24,1.7,17.92,2.24,27.31,2.26c6.69,0.02,18.37-2.18,23.69,2.93c3.78,3.63,3.86,9.89,6.71,14.2
				c4.35,6.58,12.15,8.95,19.72,8.67c4.49-0.17,8.21-0.06,12.61,0.98c4.49,1.06,8.75,1.72,13.35,1.13
				c4.27-0.55,8.39-2.04,12.71-2.12c4.53-0.09,9.05,0.56,13.59,0.23c4.03-0.29,7.98-1.14,11.94-1.87c4.99-0.91,10.01-0.7,15.06-0.7
				c10.37,0.01,20.75-0.11,31.12,0.01c8.15,0.1,17.49,1.35,25.06-2.35c5.97-2.92,9.52-8.49,12.19-14.35
				c3.06-6.72,7.38-11.24,14.18-14.46c7.43-3.51,15.48-1.29,22.98,0.96c8.37,2.51,18.31,4.34,25.79,8.99
				c2.99,1.86,5.55,4.09,8.81,5.54c3.91,1.74,8,2.89,12.05,4.24c9.92,3.32,17.73,1.84,27.44-1.33c8.65-2.83,17.56-5.08,26.65-5.81
				c7.56-0.61,14.78-1.24,20.32,4.65c4.5,4.78,8.8,10.32,12.84,15.49c5.07,6.48,7.77,14.49,12.6,21.14
				c8.81,12.12,23.59,18.84,37.68,11.26c6.43-3.46,11.19-9.42,14.37-15.87c2.95-5.98,6.37-12.63,13.04-15.07
				c3.94-1.44,7.66-0.4,11.69-0.37c4.44,0.04,7.87-1.88,12.08-2.6c8.71-1.48,17.31,4.37,23.98,9.15
				c7.47,5.34,14.59,11.14,22.6,15.69c7.13,4.06,13.55-6.94,6.42-10.99c-15.62-8.88-28.64-24.36-47.35-26.48
				c-3.94-0.45-7.76-0.19-11.53,1.09c-4.37,1.48-7.64,1.11-12.18,0.96c-7.86-0.26-15.4,3.09-20.85,8.69
				c-8.02,8.25-11.82,28.35-26.72,26.35c-7.28-0.97-12.17-7.51-15.58-13.4c-4.05-6.99-7.33-14.26-12.81-20.31
				c-4.47-4.93-8.04-10.86-12.95-15.36c-5.55-5.08-12.18-7.02-19.6-7.06c-9.37-0.05-18.82,1.33-27.89,3.62
				c-8.94,2.25-18.54,7.91-27.87,5.33c-3.6-1-7.25-2.3-10.77-3.56c-3.61-1.29-6.36-3.51-9.52-5.6c-7.34-4.87-16.89-6.73-25.19-9.34
				c-8.24-2.59-17.05-5.35-25.8-4.45c-7.54,0.77-14.57,4.76-20.32,9.51c-5.85,4.84-7.96,10.47-11.48,16.87
				c-3.7,6.71-8.71,6.65-15.94,6.63c-10.25-0.04-20.49-0.13-30.74-0.12c-9.39,0.01-18.73-0.44-28.01,1.3
				c-4.35,0.81-8.45,1.43-12.89,1.34c-4.54-0.09-9-0.54-13.52,0.14c-3.93,0.59-7.81,2.09-11.81,1.99
				c-4.79-0.12-9.38-2.15-14.16-2.57c-5.93-0.52-14.66,2.49-17.64-4.45c-2.43-5.66-3.49-11.1-8.38-15.35
				c-6.37-5.54-14.64-5.89-22.67-5.85c-9.29,0.04-19.07,0.87-28.23-0.87c-4.25-0.81-8.52-1.49-12.67-2.75
				c-4.89-1.48-9.62-3.07-14.75-3.49c-4.4-0.36-8.83,0.09-13.24,0.08c-4.88-0.02-9.76-0.43-14.64-0.16
				c-4.25,0.23-8.15,1.46-12.29,2.28c-4.1,0.81-8.27,0.66-12.25,2.1c-7.74,2.81-11.05,8.1-16.05,14.06
				c-4.44,5.3-6.76,12.29-13.89,14.11c-8.24,2.11-17.39,1.1-25.66-0.29c-8.31-1.4-16.64-3.29-24.59-6.1
				c-7.8-2.76-14.71-6.92-21.77-11.15c-3.29-1.97-6.8-3.71-8.94-7.03c-2.19-3.4-3.33-7.2-6.14-10.25
				c-4.88-5.3-12.32-8.36-19.42-8.83c-7.18-0.48-15.25,2.2-19.49,8.31c-4.55,6.55-1.98,13.6-2.13,20.85
				c-0.13,6.58-6.69,7.66-12.13,7.85c-7.3,0.26-14.65,0.85-21.95,0.66c-6.64-0.17-13.67-1.11-18.73-5.8
				C800.28,2653.71,791.26,2662.69,797.28,2668.27L797.28,2668.27z"/>
		</g>
	</g>
	<g>
		<g>
			<path class="st6" d="M1873.87,2734.5c-0.53-6.2,2.38-8.4,6.99-11.92c2.49-1.9,4.89-3.83,6.89-6.26c1.03-1.26,1.89-2.51,2.55-3.99
				c0.67-1.53,0.69-4.79,1.71-5.99c0.92-1.08,3.38-1.66,4.65-2.28c2.27-1.11,4.51-2.18,6.87-3.1c4.14-1.6,8.29-3.29,12.49-4.75
				c8.04-2.79,15.67-1.31,23.66,0.9c8.76,2.42,17.23,3.08,26.3,2.68c4.45-0.2,8.89-0.55,13.34-0.61c4.32-0.06,8.58,0.48,12.86-0.4
				c3.95-0.81,6.76-1.83,10.79-1.01c3.15,0.64,6.6,1.35,9.54,2.67c3.69,1.66,6.27,4.98,9.34,7.5c3.01,2.46,6.33,4.53,9.73,6.41
				c6.91,3.82,14.58,7.43,22.49,8.36c8.65,1.01,17.72-0.42,26.43-0.43c8.61-0.01,19.2,2.12,26.97-2.49
				c6.12-3.64,8.68-10.79,14.43-14.95c12.32-8.92,28.87-9.87,40.76-19.53c6.71-5.45,15.88-27.96,26.16-16.41
				c9.13,10.26,7.91,27.67,21.59,33.64c6.82,2.97,13.2,6.61,20.38,8.6c4.51,1.25,8.72,3.29,13.16,4.74
				c4.43,1.45,9.05,2.42,13.53,3.68c17.3,4.87,34.79,8.66,51.93,1.07c6.95-3.08,13.17-7.48,19.78-11.2
				c7.2-4.05,13.67-5.71,21.91-5.6c10.28,0.13,20.66,0.5,30.94-0.01c9.07-0.45,17.48-3.93,26.07-6.56c4.04-1.23,7.9-2.79,11.39-5.21
				c3.47-2.4,6.49-5.28,10.22-7.32c6.66-3.65,14.61-5.96,21.75-8.56c3.57-1.3,7.35-2.65,11.17-2.85c4.26-0.22,8.71,1.44,12.71,2.73
				c8.64,2.79,16.4,5.08,25.6,5.19c9.01,0.11,18.02-0.56,27.03-0.57c10.42-0.02,20.94,0.39,31.35-0.02
				c16.54-0.64,30.43-10.39,40.76-22.73c5.06-6.04,8.95-12.35,12.74-19.22c1.51-2.74,2.95-5.74,6.2-5.59
				c4.37,0.2,9.58,2.73,13.68,4.11c4.61,1.55,9.26,2.8,13.9,4.23c4.37,1.34,8.34,3.74,12.31,5.96c3.82,2.14,7.9,3.84,11.67,6.03
				c3.5,2.03,6.52,4.49,10.31,6.03c7.8,3.18,16.39,5.29,24.83,5.33c4.67,0.03,9.32-0.37,13.99-0.29c4.91,0.08,9.73,0.43,14.62-0.2
				c6.44-0.83,13.8-1.43,18.62-6.28c5.7-5.74-3.17-14.62-8.88-8.88c-1.82,1.83-5.67,1.96-8.09,2.33c-4.21,0.64-8.32,0.74-12.57,0.6
				c-9.39-0.3-18.88,1.11-28.08-1.22c-3.63-0.92-7.55-1.81-10.92-3.48c-3.81-1.89-7.04-4.69-10.92-6.51
				c-8.41-3.95-16.04-9.44-25.09-11.95c-9.12-2.53-17.99-6.33-27.28-8.22c-8.24-1.67-14.49,3.75-18.46,10.46
				c-3.95,6.68-7.29,13.12-12.43,19.04c-5.17,5.97-11.11,11.42-18.32,14.81c-8.56,4.03-17.86,3.06-27.05,3.06
				c-9.96,0.01-19.95-0.17-29.91,0.22c-8.77,0.35-18.02,1.28-26.6-1.05c-8.46-2.3-16.71-6.79-25.71-6.47
				c-8.05,0.28-15.51,3.69-22.88,6.58c-7.41,2.9-14.89,4.99-21.39,9.78c-3.42,2.52-6.49,5.41-10.48,7.02
				c-4.36,1.76-9.13,2.92-13.61,4.37c-9.52,3.09-18.75,2.9-28.67,2.88c-9.14-0.02-18.83-1.19-27.81,0.92
				c-7.6,1.79-14.45,5.87-21.04,9.9c-6.41,3.91-12.83,7.98-20.26,9.58c-9.13,1.97-18.48,0.26-27.36-2.05
				c-8.95-2.33-18.17-4.47-26.8-7.81c-4.12-1.59-8.58-2.42-12.63-4.05c-3.39-1.37-6.25-3.74-9.71-5.08
				c-3.38-1.31-6.76-1.95-8.54-5.43c-1.64-3.21-2.44-6.96-3.83-10.31c-2.46-5.93-5.28-11.75-9.56-16.61
				c-4.27-4.85-10.21-8.19-16.82-7.54c-7.61,0.75-13.43,5.85-17.85,11.71c-4.41,5.84-7.44,10.9-14.15,14.34
				c-6.74,3.45-14.07,5.57-21.04,8.47c-7.2,3-14.32,6.69-19.62,12.57c-2.14,2.38-3.66,5.43-5.93,7.66
				c-3.34,3.28-8.06,2.22-12.34,2.09c-9.44-0.27-18.82,0.16-28.24,0.59c-8.39,0.38-15.47-2.2-22.81-6.1
				c-3.14-1.67-6.37-3.46-9.15-5.7c-3.34-2.69-6.13-6.03-9.89-8.21c-5.71-3.32-13.68-5.35-20.27-5.64
				c-4.42-0.19-8.34,1.81-12.65,2.09c-4.25,0.28-8.58-0.2-12.86,0c-9.09,0.42-18.49,1.56-27.42-0.7c-8.46-2.14-16.69-4.8-25.55-3.91
				c-8.5,0.85-16.84,4.76-24.66,8c-3.75,1.56-7.76,3.23-11.19,5.41c-3.94,2.5-5.23,5.8-6.4,10.09c-1.44,5.31-7.84,7.9-11.6,11.47
				c-4.88,4.64-6.89,10.69-6.33,17.34C1861.99,2742.49,1874.55,2742.57,1873.87,2734.5L1873.87,2734.5z"/>
		</g>
	</g>
	<g>
		<g>
			<path class="st6" d="M1051.8,2951.81c4.5-4.1,10.17-6.53,14.97-10.23c4.97-3.83,8.06-8.4,10.33-14.2
				c2.46-6.29,4.96-9.52,12.13-10.34c6.36-0.73,12.93,0.18,19.3,0.28c12.9,0.19,19.68,10.72,31.57,13.79
				c13.51,3.5,28.89,0.37,41.99-3.27c6.21-1.73,12.17-0.31,18.44-2.78c6.55-2.59,12.71-5.84,19.32-8.33
				c12.47-4.71,24.77-13.6,38.69-11.08c5.63,1.02,11,3.02,16.68,3.83c6.82,0.97,11.37,2.96,17.39,6.15
				c5.69,3.02,11.69,4.51,17.8,6.38c7.89,2.41,15.29,6.33,22.65,10.02c24.73,12.41,51.84,21.64,79.81,21.73
				c13.64,0.04,27.34,1.21,40.91-0.61c14.05-1.89,28.23-0.36,42.3-1.94c11.52-1.3,22.99-4.49,31.2-13.12
				c6.85-7.2,10.57-16.6,16.96-24.11c8.57-10.07,23.24-10.92,35.61-11.17c7.19-0.15,14.38-0.11,21.58-0.26
				c7.74-0.16,16.04-0.87,23.62,0.99c6.44,1.58,8.62,6.29,13.4,10.26c4.86,4.04,11.11,5.37,16.07,9.2
				c9.85,7.61,18.24,15.44,30.74,18.81c6.92,1.87,13.53,1.64,19.79,5.51c5.7,3.52,11.14,3.82,17.46,5.47
				c14.68,3.83,28.64,10.43,43.06,15.12c14.18,4.62,28.12,5.39,42.92,5.35c5.55-0.02,10.94-0.09,16.1-2.29
				c6.19-2.64,11.81-6.38,18.08-8.92c12.84-5.2,26.34-7.76,39.45-12.03c6.27-2.04,12.51-4.49,19.07-5.43
				c6.82-0.98,11.21-2.9,17.19-6.23c6.12-3.41,13.33-4.57,19.77-7.26c5.97-2.49,10.56-6.39,15.88-9.93c11.71-7.8,26.19-3.24,37,4
				c4.98,3.33,8.51,7.66,12.82,11.71c1.81,1.7,3.75,3.2,6.06,4.14c4.03,1.64,5.88,2.59,8.85,5.9c3.9,4.34,8.96,5.93,13.8,8.89
				c4.96,3.04,9.13,6.84,15.18,7.47c5.66,0.58,11.66-1.21,17.12-2.56c6.66-1.64,13.54-2.06,20.04-4.29
				c13.44-4.61,27.21-7.45,40.13-13.58c6.61-3.14,12.12-4.51,19.45-4.22c7.32,0.29,14.32,0.98,21.63-0.01
				c12.66-1.71,25.82-5.96,37.22-11.76c4.95-2.52,9.6-5.62,12.96-10.1c2.93-3.91,3.47-8.58,8.39-4.6c4.82,3.9,9.9,6.87,15.05,10.32
				c5.86,3.92,9.52,9.59,13.34,15.38c5.43,8.24,9.71,16.02,19.15,20.16c12.05,5.28,26.88,3.01,39.7,3.02
				c6.11,0,12.49,0.56,18.52-0.69c6.51-1.34,12.17-5.26,17.38-9.22c4.96-3.78,9.86-7.82,14.34-12.16
				c4.61-4.47,7.95-10.01,12.46-14.57c5.01-5.06,10.91-9.54,16.85-13.44c5.81-3.81,11.12-5.13,17.42-7.55
				c5.77-2.22,10.75-6.09,16.43-8.52c5.87-2.51,11.29-0.24,17.34,0.78c6.54,1.1,13.14,1.92,19.75,2.35
				c3.91,0.26,10.47-0.29,13.37,2.8c5.83,6.2,15.14-3.14,9.33-9.33c-7.05-7.49-19.32-6.2-28.68-7.15
				c-12.63-1.28-24.89-6.72-37.06-1.21c-5.44,2.46-10.4,6.36-16.03,8.32c-6.4,2.23-11.65,3.71-17.5,7.44
				c-11.53,7.36-20.45,16.23-29.18,26.6c-8.05,9.57-21.18,22.24-34.31,22.38c-7.66,0.08-15.33-0.03-22.99-0.02
				c-6.49,0.01-14.01,1.04-20.22-1.2c-10.27-3.7-14.36-15.75-20.5-23.92c-3.49-4.65-7.39-8.45-12.25-11.64
				c-2.59-1.7-5.39-3.07-7.96-4.8c-2.86-1.93-5.16-4.55-8.03-6.44c-9.78-6.42-17.58-1.3-23.3,7.05
				c-7.03,10.27-22.46,13.93-33.92,16.9c-7.21,1.87-14.14,2.5-21.55,2.07c-6.81-0.39-13.66-1.07-20.4,0.43
				c-6.19,1.38-11.6,4.88-17.38,7.3c-7.67,3.22-15.83,5.02-23.82,7.22c-6.45,1.78-12.21,4.25-18.91,5.11
				c-6.72,0.87-13.32,3.89-20.09,4.17c-5.6,0.23-9.93-4.84-14.7-7.27c-3.1-1.59-5.82-2.71-8.23-5.25c-2.06-2.16-3.51-4.49-6.08-6.16
				c-2.81-1.83-6.15-1.89-8.83-3.88c-2.09-1.55-3.72-4.07-5.6-5.89c-4.63-4.46-10.01-8.37-15.72-11.33
				c-10.61-5.51-23.7-8.62-35.44-4.95c-5.62,1.76-10.06,5.18-14.76,8.6c-5.91,4.31-12.3,6.28-19.16,8.57
				c-3.3,1.1-6.66,2.26-9.76,3.88c-2.78,1.46-5.24,3.6-8.3,4.46c-6.54,1.83-13.28,2.27-19.86,4.42
				c-13.52,4.43-27.48,7.36-40.84,12.26c-5.75,2.11-11.47,4.48-16.9,7.32c-6.64,3.48-10.64,5.15-18.34,5.17
				c-15.69,0.04-29.59-1.41-44.47-6.6c-14.2-4.95-28.54-12.06-43.44-14.44c-6.69-1.07-11.3-5.47-17.71-7.31
				c-7.35-2.11-14.49-2.21-21.53-5.6c-5.75-2.77-10.21-6.02-14.94-10.26c-4.83-4.34-9.74-6.74-15.46-9.66
				c-5.22-2.66-7.75-7.52-12.32-10.94c-4.91-3.67-11.21-5.03-17.2-5.64c-15.14-1.52-31.4-0.62-46.58,0.16
				c-12.23,0.63-26.06,2.54-35.73,10.71c-7.58,6.4-11.74,15.55-17.33,23.52c-7.59,10.83-18.99,13.8-31.76,14.51
				c-7,0.39-14.01,0.19-21.02,0.32c-7.39,0.14-14.56,1.31-21.9,1.87c-14.21,1.1-29.38,0.47-43.61-0.35
				c-6.76-0.39-12.86-2.34-19.38-3.96c-7.37-1.84-14.97-2.76-22.15-5.33c-14.03-5.02-26.77-13.35-40.54-19.05
				c-6.91-2.86-14.5-3.96-21.19-7.31c-5.25-2.63-10.03-5.99-15.87-7.25c-6.06-1.31-12.12-2.05-18.18-3.58
				c-6.11-1.54-12.23-2.46-18.52-1.57c-13.12,1.85-25.66,9.3-37.95,13.99c-5.61,2.14-11.02,6.42-16.95,7.51
				c-3.59,0.66-7.11-0.42-10.74,0.35c-3.54,0.75-6.88,2.18-10.43,2.94c-7.63,1.63-15.66,2.56-23.46,1.89
				c-7.75-0.67-12.53-5.1-18.83-9.11c-10.23-6.51-21.76-6-33.49-6.2c-11.28-0.19-23.27,2.25-28.67,13.26
				c-2.72,5.55-3.53,10.62-8.77,14.58c-5.18,3.92-11.01,6.53-15.87,10.96C1036.19,2948.21,1045.54,2957.52,1051.8,2951.81
				L1051.8,2951.81z"/>
		</g>
	</g>
	<g>
		<g>
			<path class="st6" d="M1127,3030.84c4.22-4.82,8.71-9.33,13.37-13.72c4.62-4.37,8.69-10.1,14.19-13.4
				c5.34-3.2,12.06-4.97,17.92-7.04c6.79-2.4,13.74-4.69,20.84-5.97c29.72-5.38,49.98,19.65,74.18,31.82
				c10.57,5.32,21.88,7.14,33.61,7.46c6.02,0.16,12.54,1.02,18.31-1.03c5.01-1.78,8.82-5.44,12.28-9.34
				c3.56-4.01,6.52-8.14,11.64-10.23c6.54-2.68,13.41-2.47,20.33-2.65c6.14-0.16,11.5-2.45,17.47-3.17
				c7.14-0.86,14.89,0.25,22.1,0.26c14.05,0.01,27.55,1.12,41.52,2.39c11.61,1.06,26.17-2.36,36.59,4.03
				c5,3.07,7.18,7.38,10.24,12.1c3.02,4.66,6.73,8.12,11.29,11.24c4.53,3.1,9.32,6.31,14.73,7.61c6.79,1.63,13.71,2.23,20.47,4.18
				c13.13,3.78,25.85,8.77,39.5,10.38c6.77,0.8,13.66,0.6,20.47,0.75c6.78,0.14,13.96,0.54,20.63-0.95
				c10.86-2.42,18.43-10.51,26.52-17.5c9.79-8.45,21.58-16.43,33.34-21.82c6.63-3.04,12.43-4.12,19.57-2.26
				c7.22,1.88,14.15,4.83,21.28,7.03c5.95,1.84,11.88,3.88,18.01,5c7,1.28,14.07,0.95,21.12,1.77c13.51,1.56,26.84,3.86,40.22,0.03
				c12.01-3.45,21.81-13.09,34.97-11.55c13.46,1.57,24.47,10.78,34.58,19.01c4.73,3.85,9.34,7.84,14.05,11.7
				c4.9,4.01,9.82,6.43,15.52,9.03c5.59,2.56,10.5,6.61,16.01,9.41c6.19,3.15,12.73,5.84,19.41,7.75c12.01,3.43,25.01,4,37.4,5.25
				c13.04,1.32,21.85-5.87,32.12-12.81c12.36-8.35,24.39-17.87,37.47-25.04c4.56-2.5,9.5-4.62,12.94-8.65
				c2.99-3.5,3.57-8.68,6.53-11.99c7.16-7.98,14.83,4.13,18.31,9.14c6.24,9,13.49,17.11,24.59,19.78
				c10.9,2.62,22.55,0.17,33.12-2.82c13.02-3.68,25.32-10.92,39.1-11.18c6.12-0.12,12.3,0.35,18.39,0.86
				c7,0.59,13.04,3.92,19.86,5.23c11.49,2.21,21.7-5.2,30.5-11.77c7.37-5.5,15.2-15.32,24.64-17.04c4.31-0.79,9.92,1.47,13.41,3.91
				c3.89,2.71,4.3,7.49,5.77,11.69c3.84,10.95,13.31,13.95,24.16,14.42c3.04,0.13,6.12,0.01,9.14,0.5
				c3.59,0.59,6.69,2.31,10.14,3.35c6.11,1.84,12.75,1.86,19.02,1.02c11.86-1.59,26.28-6.5,35.61-14.21
				c7.75-6.41,11.76-15.63,17.67-23.52c8.07-10.77,18.61-8.75,30.73-8.4c12.81,0.37,24.74,7.11,37.64,5.86
				c9.24-0.9,9.34-15.47,0-14.56c-6.94,0.67-13.15-1.54-19.75-3.36c-6.36-1.76-12.39-2.28-18.94-2.53
				c-12.04-0.45-23.84-1.67-33.84,6.38c-7.81,6.29-11.84,15.49-17.69,23.38c-7.21,9.74-21.28,14.91-32.95,16.6
				c-6.96,1-12.58-0.44-19.04-2.76c-6.98-2.5-13.94-1.56-21.12-2.5c-4.95-0.65-6.17-1.71-7.52-6.16
				c-1.51-4.97-3.15-10.23-6.89-14.02c-6.61-6.7-18.5-11.06-27.83-9.41c-10.66,1.88-18.97,9.96-27,16.6
				c-3.98,3.3-8.26,5.77-12.57,8.59c-1.96,1.29-4.15,3.11-6.46,3.7c-3.48,0.87-7.37-0.97-10.64-2.09
				c-11.73-4.02-25.26-5.05-37.64-4.19c-14.05,0.97-26.4,7.81-39.75,11.58c-10.47,2.96-23.8,6.46-33.28-0.89
				c-7.58-5.88-10.86-15.74-18.03-22.06c-7.25-6.38-17.91-7.84-26.53-3.08c-4.02,2.22-6.63,5.79-8.55,9.85
				c-0.92,1.95-1.57,4.3-2.88,6.04c-1.85,2.45-5.11,3.65-7.76,5.09c-12.69,6.89-24.22,15.87-36.2,23.92
				c-5.7,3.83-11.49,9.02-17.77,11.85c-4.97,2.25-10.11,1.11-15.28,0.34c-6.43-0.96-12.93-0.79-19.34-1.84
				c-7.11-1.16-14.18-3.35-20.75-6.3c-5.92-2.66-11.24-6.09-16.73-9.52c-5.61-3.52-11.73-5.1-16.95-9.36
				c-9.82-8.01-19.21-16.73-29.81-23.73c-10.35-6.83-23.01-11.88-35.61-10.57c-13.03,1.35-22.72,10.51-35.32,12.96
				c-13.76,2.67-27.52-1.68-41.27-2.07c-13.81-0.4-27.06-5.62-39.98-10.16c-13.94-4.9-25.2-5.07-38.68,1.22
				c-11.83,5.53-23.08,13.47-33.27,21.6c-8.82,7.04-15.5,15.96-27.54,16.66c-14.24,0.83-29.64,0.63-43.47-2.98
				c-13.75-3.59-26.92-9.06-41.04-11.18c-5.93-0.89-9.95-2.92-14.92-6.26c-4.98-3.35-6.95-7.45-10.24-12.3
				c-6.57-9.71-16.76-15.45-28.33-16.73c-5.53-0.61-11.07-0.3-16.62-0.29c-7.76,0.01-15.39-1.02-23.09-1.89
				c-14.07-1.6-28.16-0.55-42.27-1.21c-6.51-0.31-12.32-0.01-18.58,1.77c-6.41,1.83-12.88,1.07-19.46,1.73
				c-12.95,1.3-21.98,6.44-30.37,16.09c-4.05,4.66-6.51,7.15-13.04,6.96c-6.66-0.19-13.43-0.05-20.02-1.17
				c-12.97-2.2-22.76-9.97-33.59-16.83c-11.2-7.09-21.71-15.49-34.55-19.45c-13.5-4.16-27.27-3.03-40.69,0.76
				c-6.19,1.75-12.25,3.94-18.28,6.2c-6.47,2.43-13.1,4.5-18.58,8.84c-4.52,3.58-8.16,8.08-12.31,12.06
				c-4.91,4.7-9.73,9.39-14.21,14.51C1110.55,3027.57,1120.81,3037.91,1127,3030.84L1127,3030.84z"/>
		</g>
	</g>

		<linearGradient id="SVGID_00000114053261722185346360000014392646697697421971_" gradientUnits="userSpaceOnUse" x1="1716.3882" y1="1890.572" x2="1716.3882" y2="1678.5509">
		<stop  offset="0" style="stop-color:#888888"/>
		<stop  offset="0.1363" style="stop-color:#909090"/>
		<stop  offset="0.3444" style="stop-color:#A5A5A5"/>
		<stop  offset="0.5983" style="stop-color:#C8C8C8"/>
		<stop  offset="0.8861" style="stop-color:#F7F7F7"/>
		<stop  offset="0.9284" style="stop-color:#FFFFFF"/>
	</linearGradient>
	<path style="fill:url(#SVGID_00000114053261722185346360000014392646697697421971_);" d="M2165.06,1707.2
		c-1.33,3.72-3.43,8.25-6.74,10.68c-1.62,1.19-3.52,1.42-5.08,1.1c-11.45-2.36-3.2,5-13.88,12.12c-6.13,4.09,0.56,3.34-7.62,6.32
		c-5.14,1.87-11.89,3.72-21.92,3.72c-3.92,0-6.43,0.09-10.33,1.77c-4.48,1.93-11.1,0.23-15.57-0.88c-6.12-1.53-11.8-4.39-16.64-8.43
		c-9.91-8.28-16.44-19.8-23.65-30.31c-2.73-3.96-9.25-0.21-6.5,3.8c6.53,9.5,12.53,19.72,20.68,27.98
		c-6.86,3.77-14.01,7.28-21.87,8.13c-9.54,1.03-19.25-1.12-27.74-5.46c-8.26-4.23-15.59-9.99-23.44-14.9
		c-5.96-3.72-12.75-5.35-19.33-2.26c-5.66,2.65-9.74,7.82-13.6,12.55c-4.63,5.65-9.03,10.53-15.59,13.97
		c-16.34,8.55-33.37,3.89-49.75-1.79c-7.17-2.49-14.3-5.37-20.67-9.55c-5.52-3.62-10.83-8.76-10.88-15.79
		c-0.04-4.84-7.56-4.85-7.52,0c0.1,12.88,10.98,20.99,21.79,26.33c-20.95,16.23-54.39,17.55-76.04,2.38
		c-0.72-3.94-1.99-7.77-3.94-11.38c-2.3-4.26-8.8-0.47-6.5,3.79c8.64,16.01,1.6,37.79-7.33,52.16
		c-9.61,15.45-26.26,23.1-43.59,26.53c-9.86,1.95-19.94,2.56-29.99,2.59c-1.03-1.06-2.11-2.08-3.24-3.03
		c-3.32-2.82-7.49-5.71-12.09-5.32c-4.79,0.4-4.83,7.93,0,7.52c3-0.26,5.75,2.16,7.86,4.09c3.05,2.78,5.74,5.95,8.29,9.19
		c5.28,6.74,10.57,13.85,14.06,21.69c4.39,9.89,5.32,20.76,5.38,31.46c0.06,12.26-1.24,24.48-3.87,36.44
		c-2.6,11.81-6.41,23.3-11.08,34.44c-3.67-3.07-7.45-6.01-11.27-8.81c-10.42-7.64-21.42-14.44-32.54-21
		c-4.18-2.46-7.97,4.04-3.8,6.5c15.79,9.3,31.49,19.13,45.32,31.2c0.49,1.4,1.75,2.46,3.08,2.76c1.8,1.64,3.57,3.34,5.29,5.07
		c7.76,7.81,14.58,16.53,19.7,26.31c5.59,10.68,8.58,22.47,10.02,34.39c1.6,13.32,1.61,26.75,1.65,40.15
		c-12.3-3.22-24.92-5.64-37.38-1.85c-6.14,1.86-12.04,4.35-18.37,5.56c-4.75,0.9-2.74,8.16,2,7.25c6.33-1.21,12.23-3.7,18.37-5.56
		c6.54-1.99,12.7-2.21,19.43-1.1c14.8,2.43,29.08,7.27,43.36,11.75c11.54,3.61,24.03,6.62,33.06,15.22
		c6.85,6.51,12.14,17.45,9.39,27.05c-2.96,10.33-13.65,7.07-21.65,7.96c-4.76,0.53-9,2.59-10.86,7.25
		c-1.95,4.9-0.17,10.04,1.59,14.7c2.09,5.53,4.1,10.58,2.31,16.48c-1.36,4.46-4.28,8.27-7.99,11.07
		c-8.06,6.08-18.93,8.06-28.81,8.17c-6.42,0.08-13.14,0.26-19.45-1.09c-6.58-1.42-11.6-5.22-16.88-9.15
		c-4.63-3.45-9.39-6.75-14.95-8.5c-5.62-1.77-11.66-1.61-17.33-0.18c-11.86,2.97-22.04,10.73-31.48,18.14
		c-9.55,7.5-18.71,16.15-30.49,19.97c-12.75,4.14-26.46,3.25-39.2-0.43c-13.87-4.01-25.31-11.98-37.67-19.08
		c-9.63-5.52-22.34-12.18-33.73-8.31c-10.38,3.52-17.92,13.41-26.23,20.08c-11.45,9.19-24.16,15.32-39.07,15.16
		c-14.58-0.16-29.28-4.48-43.07-8.9c-12.45-3.99-24.79-10.41-33.67-20.19c-6.38-7.03-11.3-16.06-20.29-20.17
		c-4.36-1.99-9.05-2.66-13.78-2.54c-0.13-0.31-0.27-0.62-0.42-0.93c-4.13-8.59-13.27-13.55-22.66-13.17c-4.82,0.19-4.85,7.72,0,7.52
		c6.56-0.27,12.57,2.7,15.73,8.58c2.91,5.4,2.14,11.95-2.26,16.28c-6.6,6.5-16.84,9.79-25.91,10.21
		c-7.87,0.37-17.99-0.16-24.06-5.91c-4.92-4.66-6.02-11.61-5.84-18.11c0.22-8.01,2.21-16.02,4.98-23.5
		c6.33-17.13,17.79-32.29,31.4-44.32c15.35-13.56,34.7-23.82,55.28-25.99c0.19-0.02,0.38-0.05,0.56-0.11
		c6.3,4.51,13.12,8.2,20.11,11.57c4.34,2.09,8.16-4.39,3.8-6.5c-12.36-5.97-25.45-13.08-33.34-24.75c-9.26-13.71-8.63-30.48-3-45.48
		c2.28-6.07,5.34-11.9,8.93-17.35c0.19-0.12,0.38-0.26,0.57-0.42c19.67-17,48.14-38.16,38.59-68.02c-1.47-4.6-8.74-2.63-7.26,2
		c7.02,21.93-10.75,38.84-26.88,52.48c-11.38-8.11-21.31-18.31-27.87-30.73c-6.27-11.87-8.87-25.25-8.28-38.62
		c0.7-15.77,5.62-31.5,12.16-45.77c6.83-14.9,16.04-28.2,28.24-39.18c12.41-11.17,27.12-21.02,36.01-35.49
		c1.15-1.87,0.26-3.95-1.35-5.15c-16.3-12.11-34.68-21.6-48.7-36.56c-6.26-6.68-11.67-14.24-16.11-22.25
		c-3.79-6.84-8.24-15.7-6.34-23.76c1.89-8.01,8.19-14.5,14.16-19.77c6.19-5.47,13.11-10.15,20.21-14.35
		c18.65-11.03,39.91-15.6,61.31-17.24c23.03-1.76,46.17-0.75,69.2-2.53c0.96,9.02,8.17,17.49,11.64,25.69
		c0.8,1.89,3.54,2.26,5.14,1.35c1.95-1.11,2.14-3.29,1.35-5.15c-2.24-5.27-5.4-10.01-8.05-15.07c-1.96-3.72-3.71-7.97-2.12-12.15
		c2.14-5.64,8.18-9.65,13.17-12.56c5.12-2.98,10.63-5.18,16.28-6.95c26.56-8.29,54.91-6.9,82.38-6.98
		c18.02-0.04,36.06,0.34,53.98,2.34c1.72,2.25,3.9,4.19,5.97,6.08c6.71,6.14,13.18,15.19,22.51,17.37c4.71,1.1,6.72-6.15,2-7.25
		c-7.2-1.68-12.67-9.19-17.75-14.07c-2.63-2.53-6.04-4.82-7.71-8.16c-1.67-3.36,0.5-6.19,3.11-8.34c4.03-3.31,9.32-4.96,14.29-6.16
		c6.43-1.54,13.02-2.22,19.61-2.6c13.94-0.79,27.92-0.14,41.86,0.5c15.73,0.73,31.57-0.45,47.26,0.87
		c11.96,1.01,22.53,5.17,33.6,9.49c9.96,3.87,19.93,7.74,29.96,11.45c-3.1,2.45-5.84,5.32-7.99,8.71c-2.6,4.1,3.91,7.88,6.5,3.79
		c4.71-7.42,13.45-11.82,21.43-14.84c8.46-3.2,17.33-5.21,26.3-6.28c24.58-2.95,49.57-1.42,74.08,1.38
		c15.84,1.81,31.72,4.01,47.38,7.1c14.15,2.8,28.53,6.33,41.65,12.46c10.59,4.95,22.95,12.72,24,25.2
		c-5.83,0.96-11.55,2.7-17.07,5.5c-4.32,2.19-0.51,8.68,3.79,6.5c13.2-6.69,28.23-6.33,42.49-4.02
		c11.41,1.85,23.49,3.99,33.23,10.62C2165.58,1688.54,2168.54,1697.4,2165.06,1707.2z"/>
	<polygon class="st8" points="1573.49,2134.92 1663.19,2218.65 1588.44,2236.59 1702.07,2317.32 1621.33,2320.31 1920.34,2493.73
		1731.97,2338.25 1800.74,2350.21 1690.1,2248.55 1764.86,2260.51 1615.35,2093.06 	"/>
</g>
<g>
	<g>
		<path class="st6" d="M1795.16,2875.57c-9.38-10.7-18.76-24.32-32.21-30.19c-7.55-3.3-14.13,7.83-6.52,11.16
			c12.4,5.42,20.93,18.29,29.59,28.17C1791.51,2890.98,1800.62,2881.81,1795.16,2875.57L1795.16,2875.57z"/>
	</g>
</g>
<g class="text-bg">
	<path d="M591.64,1754.42c-22.88-6.96-50.21-15.45-77.84-24.92l-0.18,0.53c22,14.05,46.25,30.65,65.93,45.09l65.95,46.87l-10.8,31.5
		l-79.37-5.92c-24.04-1.74-52.55-5-78.93-9.02l-0.18,0.53c25.12,9.5,53.78,20.51,76.86,29.61l70.26,27.94l-12.8,37.32l-184.18-75.88
		l18.43-53.73l68.78,4.06c23.76,1.64,49.02,4.39,72.43,7.98l0.36-1.06c-20.13-12.23-42.88-26.83-61.72-40.1l-56.06-40.23
		l18.16-52.93l191.35,54.97l-13.44,39.17L591.64,1754.42z"/>
	<path d="M670.12,1576.87l-32.61,61.25l41.66,22.18l36.43-68.42l32.55,17.33l-56.42,105.96l-175.5-93.45l54.57-102.5l32.55,17.33
		l-34.59,64.96l36.46,19.41l32.61-61.25L670.12,1576.87z"/>
	<path d="M651.78,1463.89l-29.83,41.28l-30.61-22.11l84.89-117.48l30.61,22.11l-30.15,41.73l130.56,94.33l-24.91,34.47
		L651.78,1463.89z"/>
	<path d="M860.79,1329.64l-46.6,51.42l34.97,31.7l52.05-57.43l27.32,24.76l-80.61,88.94L700.59,1335.5l77.98-86.04l27.32,24.76
		l-49.42,54.53l30.6,27.74l46.6-51.42L860.79,1329.64z"/>
	<path d="M1007.48,1315.35c-42.93,35.46-96.75,22.15-132.82-21.52c-37.95-45.94-38.27-103.45,4.44-138.74
		c44.65-36.89,98.15-21.77,133.1,20.53c41.71,50.49,38,104.44-4.5,139.55L1007.48,1315.35z M986.47,1286.4
		c22.22-18.35,16.72-50.93-8.07-80.95c-22.73-27.52-54.57-41.02-77.22-22.31c-22.65,18.71-16.22,52.42,7.46,81.08
		c23.86,28.88,55.62,40.53,77.62,22.35L986.47,1286.4z"/>
	<path d="M994.32,1075.43c10.4-9.32,26.77-21.19,46.46-32.98c24-14.38,43.08-20.64,60.52-17.67c14.69,2.2,27.1,10.94,36.49,26.63
		c12.88,21.51,7.18,45.21-3.56,58.87l0.46,0.76c14.16-1.95,27.07,5.45,40.55,18.7c16.71,16.47,34.85,35.87,41.91,40.58l-37.45,22.43
		c-5.43-3.62-17.7-14.85-34.84-33.12c-17.44-18.78-27.74-20.18-43.01-11.38l-10.8,6.47l40.16,67.07l-36.25,21.71L994.32,1075.43z
		 M1074.38,1126.87l14.4-8.63c18.24-10.92,23.29-27.01,14.34-41.94c-9.25-15.44-24.18-17.5-40.98-7.44
		c-8.88,5.32-13.62,8.84-15.8,11.18L1074.38,1126.87z"/>
	<path d="M1305.93,1135.71c-51.48,21.22-98.98-7.38-120.56-59.74c-22.71-55.09-6.06-110.14,45.16-131.25
		c53.55-22.07,100.2,8.15,121.11,58.88c24.96,60.55,5.5,111-45.46,132.01L1305.93,1135.71z M1294.4,1101.85
		c26.65-10.98,31-43.73,16.16-79.73c-13.6-33-40.04-55.29-67.2-44.09c-27.16,11.2-30.96,45.31-16.79,79.67
		c14.28,34.64,41.19,55.13,67.57,44.26L1294.4,1101.85z"/>
	<path d="M1362.04,900.56l41.19-10.61l40.2,155.97l72.62-18.71l9.42,36.56l-113.8,29.33L1362.04,900.56z"/>
	<path d="M1613.3,1054.53c-55.26,6.83-93.5-33.32-100.45-89.53c-7.31-59.14,23.32-107.81,78.3-114.61
		c57.48-7.11,94.47,34.39,101.21,88.84c8.04,64.99-24.08,108.5-78.79,115.27L1613.3,1054.53z M1611.14,1018.83
		c28.6-3.54,41.47-33.96,36.69-72.61c-4.38-35.42-23.97-63.91-53.13-60.31c-29.16,3.61-41.85,35.49-37.29,72.38
		c4.6,37.18,25.12,64.07,53.45,60.57L1611.14,1018.83z"/>
	<path d="M1883.16,1036.22c-13.3,4.28-38.41,9.94-63.3,9.1c-34.4-1.15-58.98-11.12-75.74-29.09
		c-16.48-17.97-25.12-44.23-24.14-73.42c2.49-66.04,49.33-102.25,111.13-100.19c24.33,0.81,42.9,6.45,51.98,11.18l-10.16,35.97
		c-10.18-5.36-22.65-9.32-43.34-10.01c-35.51-1.18-63.35,19.14-64.79,62.19c-1.38,41.28,22.43,65.98,57.39,67.15
		c9.51,0.32,17.38-0.6,20.78-1.96l1.4-41.87l-29.08-0.97l1.17-35.09l70.19,2.34L1883.16,1036.22z"/>
	<path d="M1980.96,860.19l-28.05,196.85l-42.11-6l28.05-196.85L1980.96,860.19z"/>
	<path d="M2120.43,1088.45c-8.25,1.93-26.77,2.26-48.78-3.13c-63.33-15.5-85.7-65.32-72.23-120.33
		c16.06-65.62,69.54-91.1,124.99-77.52c21.47,5.26,36.66,13.83,43.08,19.35l-17.18,32.54c-7.24-5.72-18.09-12.02-33.03-15.68
		c-32.62-7.98-63.28,6.68-73.81,49.66c-9.4,38.4,6.38,68.07,43.07,77.06c12.77,3.13,26.99,3.87,36.33,2.21L2120.43,1088.45z"/>
	<path d="M2201.73,1070.28l-31.24,42.44l-41.02-16.49l127.65-162.97l51.66,20.77l-19.66,206.4l-42.58-17.12l5.54-52.78
		L2201.73,1070.28z M2258.66,1056.93l4.83-43.52c1.55-12.1,4.04-27.31,5.74-39.03l-0.78-0.31c-6.74,10.01-15.21,22.82-22.09,32.45
		l-26.38,34.86L2258.66,1056.93z"/>
	<path d="M2402.97,997.31l37.08,20.84l-78.91,140.42l65.38,36.74l-18.5,32.92l-102.45-57.57L2402.97,997.31z"/>
	<path d="M2498.98,1234.62c4.91,11.81,15.08,27.8,29.33,39.11c15.34,12.18,28.77,11.92,36.84,1.75c7.7-9.7,5.09-20.82-7.52-41.38
		c-17.21-28.73-22.05-55.93-4.07-78.57c21.1-26.57,58.31-29.79,92.93-2.3c16.87,13.4,26.17,26.43,31.45,37.78l-29.83,22.27
		c-3.31-7.53-10.56-20.44-24.81-31.75c-14.46-11.48-27.16-9.89-33.4-2.03c-7.89,9.93-3.27,20.76,9.96,43.7
		c18.01,30.87,18.68,54.76,1.26,76.71c-20.73,26.11-57.18,33.32-97.72,1.13c-16.87-13.4-29.67-31.47-34.15-42.93L2498.98,1234.62z"
		/>
	<path d="M2720.4,1382.35l-48.85-49.29l-33.53,33.23l54.56,55.05l-26.19,25.96l-84.49-85.26l141.23-139.96l81.74,82.48l-26.19,25.96
		l-51.8-52.27l-29.34,29.07l48.84,49.29L2720.4,1382.35z"/>
	<path d="M2836.91,1345.31c10.46,9.26,24.13,24.15,38.11,42.35c17.04,22.19,25.47,40.42,24.52,58.08
		c-0.5,14.85-7.75,28.18-22.25,39.32c-19.89,15.27-44.09,12.34-58.89,3.24l-0.7,0.54c3.57,13.84-2.3,27.52-13.9,42.43
		c-14.43,18.5-31.61,38.75-35.48,46.3l-26.59-34.62c2.97-5.81,12.71-19.29,28.89-38.42c16.65-19.49,16.85-29.88,6.35-44.04
		l-7.67-9.99l-62,47.62l-25.74-33.51L2836.91,1345.31z M2795.04,1430.75l10.23,13.31c12.96,16.87,29.52,20.02,43.32,9.42
		c14.27-10.96,14.6-26.03,2.67-41.56c-6.31-8.21-10.35-12.51-12.93-14.41L2795.04,1430.75z"/>
	<path d="M2798.43,1629.25l142.72-151.06l23.16,40.58l-61.64,61.6c-17.56,17.43-34.12,33.65-53.42,49.82l0.42,0.73
		c23.11-7.71,46.52-14.31,69.44-19.98l85.71-21.22l22.47,39.37l-204.16,43.4L2798.43,1629.25z"/>
	<path d="M3057.57,1701.57l-181.9,80.28l-17.17-38.91l181.9-80.28L3057.57,1701.57z"/>
	<path d="M2937.62,1940.67c-6-5.98-16.07-21.52-23.14-43.06c-20.34-61.94,10.11-107.28,63.92-124.95
		c64.18-21.08,114.09,10.83,131.9,65.06c6.9,21,7.65,38.42,6.36,46.8l-36.71,2.63c1.03-9.17,0.63-21.71-4.17-36.33
		c-10.47-31.9-39.14-50.17-81.18-36.37c-37.56,12.33-54.4,41.42-42.61,77.31c4.1,12.49,10.99,24.96,17.34,32L2937.62,1940.67z"/>
	<path d="M3040.67,2058.38l-13.17-68.13l-46.34,8.96l14.71,76.1l-36.2,7l-22.78-117.86l195.21-37.74l22.04,114.01l-36.2,7
		l-13.97-72.25l-40.55,7.84l13.17,68.13L3040.67,2058.38z"/>
</g>
<g class="text-bg">
	<path d="M1272.93,3190.73l40.94,22.66l-64.55,116.6c-29.09,52.55-64.02,57.17-103.61,35.25c-9.7-5.37-21.18-13.87-27.74-21.08
		l23.22-31.13c4.6,5.05,11.11,10.44,19.19,14.92c17.24,9.54,32.4,7.57,48.16-20.9L1272.93,3190.73z"/>
	<path d="M1328.25,3391.07l-32.46,45.67l-45.58-16.98l133.05-175.45l57.41,21.39l-13.04,220.17l-47.31-17.63l3.9-56.31
		L1328.25,3391.07z M1390.03,3376.03l3.5-46.44c1.2-12.91,3.31-29.15,4.68-41.66l-0.87-0.32c-6.97,10.76-15.71,24.53-22.86,34.89
		l-27.45,37.51L1390.03,3376.03z"/>
	<path d="M1667.01,3447.68c2.85-25.2,6.45-55.34,11.05-85.97l-0.61-0.09c-10.7,25.6-23.68,54.02-35.27,77.28l-37.19,77.62
		l-36.23-5.44l-9.79-84.04c-3.03-25.45-5.31-55.84-6.35-84.16l-0.61-0.09c-5.14,28.02-11.2,60.01-16.32,85.82l-15.86,78.61
		l-42.93-6.45l44.42-206.56l61.8,9.28l9.64,72.63c3.07,25.14,5.26,52.04,6.15,77.17l1.22,0.18c9.11-23.31,20.24-49.79,30.73-71.95
		l32.03-66.06l60.89,9.15l-20.37,210.17l-45.06-6.77L1667.01,3447.68z"/>
	<path d="M1812.26,3477.74l-11.52,54.83l-48.57,2.63l51.92-213.98l61.17-3.32l75.97,207.05l-50.42,2.73l-18.91-53.18
		L1812.26,3477.74z M1862.89,3439.28l-15.33-43.97c-4.06-12.31-8.61-28.04-12.34-40.06l-0.92,0.05
		c-2.09,12.65-4.61,28.76-7.02,41.11l-10.18,45.35L1862.89,3439.28z"/>
	<path d="M1993.28,3299.18l38.57,207.3l-46,8.56l-38.57-207.3L1993.28,3299.18z"/>
	<path d="M2231.12,3443.92c-6.7,6.38-23.97,17.1-47.75,24.62c-68.39,21.64-117.39-10.76-135.52-68.03
		c-21.62-68.3,14.53-121.42,74.41-140.36c23.19-7.34,42.31-8.14,51.46-6.77l2.03,39.06c-10.03-1.09-23.79-0.68-39.93,4.43
		c-35.22,11.14-55.92,41.65-41.76,86.39c12.65,39.97,44.15,57.89,83.78,45.35c13.8-4.37,27.62-11.69,35.49-18.45L2231.12,3443.92z"
		/>
	<path d="M2303.96,3356.89l12.39,54.64l-43.05,22.64l-42.03-216.15l54.22-28.52l155.37,156.53l-44.68,23.5l-39.36-40.45
		L2303.96,3356.89z M2333.95,3300.82l-32.27-33.58c-8.82-9.5-19.52-21.9-27.92-31.27l-0.82,0.43c3.37,12.37,7.8,28.06,10.76,40.29
		l9.66,45.47L2333.95,3300.82z"/>
</g>
</svg>
