<?xml version="1.0" encoding="UTF-8" standalone="no"?>
<svg
   width="24"
   height="24"
   viewBox="0 0 24 24"
   version="1.1"
   id="svg7065"
   sodipodi:docname="wind2.svg"
   inkscape:version="1.2 (dc2aedaf03, 2022-05-15)"
   xmlns:inkscape="http://www.inkscape.org/namespaces/inkscape"
   xmlns:sodipodi="http://sodipodi.sourceforge.net/DTD/sodipodi-0.dtd"
   xmlns="http://www.w3.org/2000/svg"
   xmlns:svg="http://www.w3.org/2000/svg">
  <defs
     id="defs7069" />
  <sodipodi:namedview
     id="namedview7067"
     pagecolor="#505050"
     bordercolor="#ffffff"
     borderopacity="1"
     inkscape:showpageshadow="0"
     inkscape:pageopacity="0"
     inkscape:pagecheckerboard="1"
     inkscape:deskcolor="#505050"
     showgrid="false"
     inkscape:zoom="25.83886"
     inkscape:cx="18.073553"
     inkscape:cy="8.9013214"
     inkscape:window-width="1896"
     inkscape:window-height="1221"
     inkscape:window-x="3210"
     inkscape:window-y="103"
     inkscape:window-maximized="0"
     inkscape:current-layer="g7075" />
  <g
     id="g7072">
    <g
       id="g7075">
      <path
         d="m 14.036065,4.384268 c 1.171,0.724 1.73,2.172 1.387,3.537 -0.334,1.324 -1.445,2.278 -2.752,2.353 l -0.18,0.004 h -9.1 c -1.2559575,-0.0014 -1.3641673,-1.8446598 -0.117,-1.993 l 0.117,-0.007 h 9.106 c 0.447,0.002 0.858,-0.334 0.987,-0.846 0.134,-0.532 -0.08,-1.089 -0.498,-1.346 -0.344169,-0.2163579 -0.789817,-0.1796959 -1.094,0.09 l -0.092,0.088 c -0.907752,0.9445347 -2.339879,-0.384041 -1.466,-1.36 0.97,-1.045 2.5,-1.264 3.703,-0.52 z"
         fill="currentColor"
         fill-rule="nonzero"
         id="path7063"
         sodipodi:nodetypes="ccccccccccccccc" />
      <path
         d="m 20.705359,13.493465 c 1.388,0.007 2.587,-0.973 2.936,-2.356999 0.343,-1.3649998 -0.216,-2.8130001 -1.387,-3.5370001 -1.204,-0.744 -2.734,-0.525 -3.703,0.52 -0.852429,0.9178043 0.41492,2.2515161 1.375,1.4470003 l 0.09,-0.087 c 0.324,-0.348 0.801,-0.417 1.187,-0.178 0.418,0.257 0.632,0.8139998 0.498,1.3459998 -0.118,0.47 -0.474,0.791 -0.88,0.84 l -0.111,0.006 -19.1700663,0.02737 c -1.26734497,-0.01002 -1.21262386,1.801001 0.047196,1.939267 l 0.1717321,0.006 18.9451381,0.02737 z"
         fill="currentColor"
         fill-rule="nonzero"
         id="path7063-3"
         sodipodi:nodetypes="ccccccccccccccc" />
      <path
         d="m 17.366795,14.675993 c 1.388,-0.007 2.587,0.973001 2.936,2.357 0.343,1.364999 -0.216,2.812999 -1.387,3.536999 -1.204,0.744 -2.734,0.525 -3.703,-0.52 -0.852429,-0.917804 0.41492,-2.251516 1.375,-1.447 l 0.09,0.087 c 0.324,0.348 0.801,0.417 1.187,0.178 0.418,-0.257 0.632,-0.814 0.498,-1.346 -0.118,-0.469999 -0.474,-0.790999 -0.88,-0.839999 l -0.111,-0.006 H 5.2347955 c -1.267345,0.01002 -1.37682,-1.855734 -0.117,-1.993999 l 0.117,-0.006 H 17.365795 Z"
         fill="currentColor"
         fill-rule="nonzero"
         id="path7063-3-4"
         sodipodi:nodetypes="ccccccccccccccc" />
    </g>
  </g>
</svg>
